<svg width="120" height="120" viewBox="0 0 120 120" fill="none" xmlns="http://www.w3.org/2000/svg">
<path d="M120 60C120 93.135 93.135 120 60 120C26.865 120 0 93.135 0 60C0 26.865 26.865 0 60 0C93.135 0 120 26.865 120 60Z" fill="url(#paint0_linear_1560_17)"/>
<path opacity="0.05" d="M87.5762 74.8501L72.7292 60.0001L87.5792 45.1501C89.9222 42.8071 89.9222 39.0091 87.5792 36.6661L83.3372 32.4241C80.9942 30.0811 77.1962 30.0811 74.8532 32.4241L60.0002 47.2711L45.1502 32.4211C42.8072 30.0781 39.0092 30.0781 36.6662 32.4211L32.4242 36.6631C30.0812 39.0061 30.0812 42.8041 32.4242 45.1471L47.2742 59.9971L32.4242 74.8471C30.0812 77.1901 30.0812 80.9881 32.4242 83.3311L36.6662 87.5731C39.0092 89.9161 42.8072 89.9161 45.1502 87.5731L60.0002 72.7231L74.8502 87.5731C77.1932 89.9161 80.9912 89.9161 83.3342 87.5731L87.5762 83.3311C89.9192 80.9911 89.9192 77.1931 87.5762 74.8501Z" fill="black"/>
<path opacity="0.07" d="M86.5171 75.909L70.608 60L86.5171 44.0911C88.2751 42.3331 88.2751 39.4831 86.5171 37.7281L82.275 33.486C80.517 31.728 77.6671 31.728 75.9121 33.486L60 49.3921L44.0911 33.4831C42.3331 31.7251 39.4831 31.7251 37.7281 33.4831L33.486 37.7251C31.728 39.4831 31.728 42.333 33.486 44.088L49.3921 60L33.4831 75.909C31.7251 77.667 31.7251 80.517 33.4831 82.272L37.7251 86.5141C39.4831 88.2721 42.333 88.2721 44.088 86.5141L60 70.608L75.909 86.5171C77.667 88.2751 80.517 88.2751 82.272 86.5171L86.5141 82.275C88.2751 80.517 88.2751 77.667 86.5171 75.909Z" fill="black"/>
<path d="M81.2128 34.545L85.4548 38.787C86.6278 39.96 86.6278 41.859 85.4548 43.029L43.0288 85.455C41.8558 86.628 39.9568 86.628 38.7868 85.455L34.5448 81.213C33.3718 80.04 33.3718 78.141 34.5448 76.971L76.9708 34.545C78.1408 33.372 80.0428 33.372 81.2128 34.545Z" fill="white"/>
<path d="M85.4548 81.213L81.2128 85.455C80.0398 86.628 78.1408 86.628 76.9708 85.455L34.5448 43.029C33.3718 41.856 33.3718 39.957 34.5448 38.787L38.7868 34.545C39.9598 33.372 41.8588 33.372 43.0288 34.545L85.4548 76.971C86.6278 78.141 86.6278 80.043 85.4548 81.213Z" fill="white"/>
<defs>
<linearGradient id="paint0_linear_1560_17" x1="17.574" y1="17.574" x2="102.426" y2="102.426" gradientUnits="userSpaceOnUse">
<stop stop-color="#F44F5A"/>
<stop offset="0.443" stop-color="#EE3D4A"/>
<stop offset="1" stop-color="#E52030"/>
</linearGradient>
</defs>
</svg>
