<?xml version="1.0" encoding="utf-8"?>
<svg width="40" height="36" viewBox="0 0 40 36" xmlns="http://www.w3.org/2000/svg">
<path d="M19.7018 35.9257C19.039 35.945 18.394 35.7098 17.8988 35.2683C17.4037 34.8269 17.0959 34.2126 17.0386 33.5514L16.7389 31.2C13.8845 30.3857 12.2146 28.2714 11.7808 24.9143L9.2118 5.10282C8.66072 5.01405 8.10291 4.9739 7.54481 4.98282C6.71874 4.97605 5.89564 5.08276 5.09855 5.29996V35.3457H0.0576172V11.1943C0.0576172 7.9171 1.52765 5.60282 4.20511 4.63996V3.08282C4.20511 1.28282 5.29836 0.0742449 6.92254 0.0742449C8.54672 0.0742449 9.56575 1.08567 9.82836 2.93139L10.0281 4.37425C12.9596 5.19425 14.6723 7.55139 15.1804 11.3771L17.5553 30.4743C18.9742 30.7486 20.4324 30.7486 21.8512 30.4743L24.2261 11.38C24.7228 7.55139 26.4554 5.19425 29.3784 4.36567L29.5782 2.92282C29.8408 1.08567 30.8741 0.0656738 32.484 0.0656738C34.0939 0.0656738 35.2014 1.27425 35.2014 3.07425V4.63139C37.8789 5.59425 39.3489 7.90853 39.3489 11.1857V35.3371H34.3023V5.2971C33.5052 5.0799 32.6821 4.97319 31.856 4.97996C31.2979 4.97104 30.7401 5.01119 30.189 5.09996L27.62 24.9143C27.1947 28.2114 25.4849 30.3771 22.6619 31.2L22.3793 33.5543C22.3352 34.2229 22.0292 34.8471 21.5278 35.2912C21.0265 35.7353 20.3703 35.9633 19.7018 35.9257ZM17.6723 31.4286L17.9321 33.4543C17.9593 33.8985 18.1604 34.314 18.4917 34.6109C18.8229 34.9077 19.2577 35.0619 19.7018 35.04C19.9228 35.0559 20.1446 35.0272 20.3543 34.9557C20.564 34.8842 20.7572 34.7713 20.9225 34.6237C21.0878 34.4761 21.2218 34.2968 21.3166 34.0964C21.4114 33.896 21.4651 33.6787 21.4744 33.4571L21.7342 31.4286C20.3892 31.6495 19.0173 31.6495 17.6723 31.4286ZM35.2014 34.46H38.4498V11.1943C38.4498 8.4171 37.3308 6.49996 35.2014 5.60567V34.46ZM0.948202 34.46H4.20511V5.60567C2.07856 6.49996 0.971038 8.4171 0.971038 11.1943L0.948202 34.46ZM10.1566 5.34853L12.6742 24.7971C13.0339 27.6114 14.3612 29.4314 16.6162 30.2257L14.2898 11.4886C13.8616 8.18567 12.5058 6.16853 10.1566 5.34853ZM29.2499 5.34853C26.9007 6.16853 25.5392 8.18568 25.1167 11.4914L22.7903 30.2143C25.0482 29.42 26.3727 27.6 26.7323 24.7857L29.2499 5.34853ZM5.10426 4.35425C5.90496 4.15936 6.7265 4.0634 7.55052 4.06853C8.06582 4.06309 8.58087 4.09364 9.09191 4.15996L8.93778 3.0371C8.74082 1.65996 8.06146 0.962817 6.92254 0.962817C5.78362 0.962817 5.10426 1.77139 5.10426 3.07139V4.35425ZM31.856 4.06853C32.68 4.0634 33.5016 4.15936 34.3023 4.35425V3.08282C34.3023 1.78282 33.6058 0.974246 32.484 0.974246C31.3622 0.974246 30.6657 1.67139 30.4688 3.04853L30.3146 4.17139C30.8257 4.10506 31.3407 4.07451 31.856 4.07996V4.06853Z"/>
</svg>
