<svg width="120" height="120" viewBox="0 0 120 120" fill="none" xmlns="http://www.w3.org/2000/svg">
<path d="M120 60C120 93.135 93.135 120 60 120C26.865 120 0 93.135 0 60C0 26.865 26.865 0 60 0C93.135 0 120 26.865 120 60Z" fill="url(#paint0_linear_1516_7)"/>
<path opacity="0.05" d="M84.5162 36.516L54.0002 67.032L38.4842 51.516C36.1412 49.173 32.3432 49.173 30.0002 51.516L25.7582 55.758C23.4152 58.101 23.4152 61.899 25.7582 64.242L49.7582 88.242C52.1012 90.585 55.8992 90.585 58.2422 88.242L97.2422 49.242C99.5852 46.899 99.5852 43.101 97.2422 40.758L93.0002 36.516C90.6572 34.173 86.8592 34.173 84.5162 36.516Z" fill="black"/>
<path opacity="0.07" d="M50.817 87.183L26.817 63.183C25.059 61.425 25.059 58.575 26.817 56.82L31.059 52.578C32.817 50.82 35.667 50.82 37.422 52.578L54 69.153L85.575 37.578C87.333 35.82 90.183 35.82 91.938 37.578L96.18 41.82C97.938 43.578 97.938 46.428 96.18 48.183L57.18 87.183C55.425 88.938 52.575 88.938 50.817 87.183Z" fill="black"/>
<path d="M51.8788 86.1211L27.8788 62.1211C26.7058 60.9481 26.7058 59.0491 27.8788 57.8791L32.1208 53.6371C33.2938 52.4641 35.1928 52.4641 36.3628 53.6371L53.9998 71.2741L86.6368 38.6371C87.8098 37.4641 89.7088 37.4641 90.8788 38.6371L95.1208 42.8791C96.2938 44.0521 96.2938 45.9511 95.1208 47.1211L56.1208 86.1211C54.9508 87.2941 53.0488 87.2941 51.8788 86.1211Z" fill="white"/>
<defs>
<linearGradient id="paint0_linear_1516_7" x1="17.574" y1="17.574" x2="102.426" y2="102.426" gradientUnits="userSpaceOnUse">
<stop stop-color="#21AD64"/>
<stop offset="1" stop-color="#088242"/>
</linearGradient>
</defs>
</svg>
